<?xml version="1.0" encoding="UTF-8" standalone="no"?>
<!-- Created with Inkscape (http://www.inkscape.org/) -->
<svg id="svg4768" xmlns:rdf="http://www.w3.org/1999/02/22-rdf-syntax-ns#" xmlns="http://www.w3.org/2000/svg" height="30" width="30" version="1.1" xmlns:cc="http://creativecommons.org/ns#" xmlns:dc="http://purl.org/dc/elements/1.1/">
 <metadata id="metadata4773">
  <rdf:RDF>
   <cc:Work rdf:about="">
    <dc:format>image/svg+xml</dc:format>
    <dc:type rdf:resource="http://purl.org/dc/dcmitype/StillImage"/>
    <dc:title/>
   </cc:Work>
  </rdf:RDF>
 </metadata>
 <g id="layer1" transform="translate(0 -1022.4)">
  <g id="g3793">
   <path id="path6694-4" d="m15 1028.4c-0.25 0-0.5021 0.014-0.75 0.031-7.6838 0.5282-14.25 8.969-14.25 8.969s6.5662 8.4407 14.25 8.9688c0.2479 0.017 0.5 0.031 0.75 0.031s0.49925-0.012 0.71875-0.031c0.01-0.0008 0.0213 0.0006 0.0312 0 7.684-0.6 14.25-9 14.25-9s-6.5662-8.4408-14.25-8.9688c-0.01-0.0006-0.0213 0.0008-0.0312 0-0.2195-0.019-0.46875-0.031-0.71875-0.031z" fill="#bdd731"/>
   <g fill-rule="evenodd">
    <circle id="path2985-1-4-1-7-7-3-4-9-7-8" cy="382.36" transform="matrix(.044954 0 0 .044954 -.34862 1020.2)" cx="341.43" r="155.71" fill="#fff"/>
    <circle id="path2985-1-4-1-7-7-3-4-9-7-4-2" cy="382.36" transform="matrix(.032110 0 0 .032110 4.0367 1025.1)" cx="341.43" r="155.71" fill="#bdd731"/>
    <circle id="path2985-1-4-1-7-7-3-4-9-7-4-0-4" cy="382.36" transform="matrix(.019266 0 0 .019266 10.422 1027)" cx="341.43" r="155.71" fill="#fff"/>
   </g>
  </g>
 </g>
</svg>
