<?xml version="1.0" encoding="UTF-8" standalone="no"?>
<!-- Created with Inkscape (http://www.inkscape.org/) -->

<svg
   xmlns:dc="http://purl.org/dc/elements/1.1/"
   xmlns:cc="http://creativecommons.org/ns#"
   xmlns:rdf="http://www.w3.org/1999/02/22-rdf-syntax-ns#"
   xmlns:svg="http://www.w3.org/2000/svg"
   xmlns="http://www.w3.org/2000/svg"
   xmlns:sodipodi="http://sodipodi.sourceforge.net/DTD/sodipodi-0.dtd"
   xmlns:inkscape="http://www.inkscape.org/namespaces/inkscape"
   width="20"
   height="20"
   viewBox="0 0 20 20"
   id="svg2"
   version="1.1"
   inkscape:version="0.91 r13725"
   sodipodi:docname="place-holder.svg">
  <defs
     id="defs4" />
  <sodipodi:namedview
     id="base"
     pagecolor="#ffffff"
     bordercolor="#666666"
     borderopacity="1.0"
     inkscape:pageopacity="0.0"
     inkscape:pageshadow="2"
     inkscape:zoom="15.839192"
     inkscape:cx="5.5746746"
     inkscape:cy="19.885539"
     inkscape:document-units="px"
     inkscape:current-layer="layer1"
     showgrid="false"
     units="px"
     inkscape:window-width="1920"
     inkscape:window-height="1017"
     inkscape:window-x="-8"
     inkscape:window-y="-8"
     inkscape:window-maximized="1" />
  <metadata
     id="metadata7">
    <rdf:RDF>
      <cc:Work
         rdf:about="">
        <dc:format>image/svg+xml</dc:format>
        <dc:type
           rdf:resource="http://purl.org/dc/dcmitype/StillImage" />
        <dc:title></dc:title>
      </cc:Work>
    </rdf:RDF>
  </metadata>
  <g
     inkscape:label="Layer 1"
     inkscape:groupmode="layer"
     id="layer1"
     transform="translate(0,-1032.3622)">
    <rect
       style="fill:#ffffff;fill-opacity:1;stroke:none;stroke-opacity:0.30666671"
       id="rect4171-5"
       width="10"
       height="10"
       x="10"
       y="1042.3622" />
    <rect
       style="fill:#ffffff;fill-opacity:1;stroke:none;stroke-opacity:0.30666671"
       id="rect4171"
       width="10"
       height="10"
       x="0"
       y="1032.3622" />
    <g
       style="font-style:normal;font-weight:normal;font-size:12.5px;line-height:125%;font-family:sans-serif;letter-spacing:0px;word-spacing:0px;fill:#000000;fill-opacity:1;stroke:none;stroke-width:1px;stroke-linecap:butt;stroke-linejoin:miter;stroke-opacity:1"
       id="text3336">
      <path
         d="m 7.9724121,1035.5647 q 0,0.6042 -0.213623,1.123 -0.2075196,0.5127 -0.5859375,0.8912 -0.4699707,0.4699 -1.1108399,0.708 -0.6408691,0.2319 -1.6174316,0.2319 l -1.2084961,0 0,3.3875 -1.2084961,0 0,-9.0882 2.4658203,0 q 0.8178711,0 1.385498,0.1404 0.567627,0.1343 1.0070801,0.4272 0.5187989,0.3479 0.7995606,0.8667 0.2868652,0.5188 0.2868652,1.3123 z m -1.2573242,0.031 q 0,-0.47 -0.1647949,-0.8179 -0.164795,-0.3479 -0.5004883,-0.5676 -0.2929688,-0.1892 -0.6713867,-0.2685 -0.3723145,-0.085 -0.946045,-0.085 l -1.196289,0 0,3.6316 1.0192871,0 q 0.7324219,0 1.1901855,-0.1282 0.4577637,-0.1342 0.7446289,-0.4211 0.2868653,-0.293 0.4028321,-0.6165 0.1220703,-0.3235 0.1220703,-0.7263 z"
         style="font-size:12.5px"
         id="path4169" />
    </g>
    <g
       style="font-style:normal;font-weight:normal;font-size:40px;line-height:125%;font-family:sans-serif;letter-spacing:0px;word-spacing:0px;fill:#000000;fill-opacity:1;stroke:none;stroke-width:1px;stroke-linecap:butt;stroke-linejoin:miter;stroke-opacity:1"
       id="text3342">
      <path
         d="m 17.850342,1052.1107 -1.147461,0 0,-3.8818 q 0,-0.47 -0.05493,-0.8789 -0.05493,-0.4151 -0.201416,-0.647 -0.152588,-0.2563 -0.439453,-0.3784 -0.286865,-0.1282 -0.744629,-0.1282 -0.469971,0 -0.982666,0.2319 -0.512695,0.232 -0.982666,0.5921 l 0,5.0903 -1.147461,0 0,-9.4971 1.147461,0 0,3.4363 q 0.53711,-0.4455 1.11084,-0.6958 0.57373,-0.2502 1.177979,-0.2502 1.104736,0 1.68457,0.6653 0.579834,0.6652 0.579834,1.9165 l 0,4.425 z"
         style="font-size:12.5px"
         id="path4166" />
    </g>
    <rect
       style="fill:#3a9fff;fill-opacity:1;stroke:none;stroke-opacity:0.30666671"
       id="rect4148"
       width="10"
       height="10"
       x="0"
       y="1042.3622" />
    <rect
       style="fill:#3a9fff;fill-opacity:1;stroke:none;stroke-opacity:0.30666671"
       id="rect4148-4"
       width="10"
       height="10"
       x="10"
       y="1032.3622" />
  </g>
</svg>
