<?xml version="1.0" encoding="UTF-8" standalone="no"?>
<!-- Created with Inkscape (http://www.inkscape.org/) -->

<svg
   xmlns:dc="http://purl.org/dc/elements/1.1/"
   xmlns:cc="http://creativecommons.org/ns#"
   xmlns:rdf="http://www.w3.org/1999/02/22-rdf-syntax-ns#"
   xmlns:svg="http://www.w3.org/2000/svg"
   xmlns="http://www.w3.org/2000/svg"
   xmlns:sodipodi="http://sodipodi.sourceforge.net/DTD/sodipodi-0.dtd"
   xmlns:inkscape="http://www.inkscape.org/namespaces/inkscape"
   width="30"
   height="30"
   id="svg4768"
   version="1.1"
   inkscape:version="0.91 r13725"
   sodipodi:docname="eye-active.svg">
  <defs
     id="defs4770" />
  <sodipodi:namedview
     id="base"
     pagecolor="#ffffff"
     bordercolor="#666666"
     borderopacity="1.0"
     inkscape:pageopacity="0.0"
     inkscape:pageshadow="2"
     inkscape:zoom="5.6"
     inkscape:cx="7.3863895"
     inkscape:cy="20.515531"
     inkscape:document-units="px"
     inkscape:current-layer="layer1"
     showgrid="true"
     inkscape:snap-bbox="true"
     inkscape:bbox-nodes="true"
     inkscape:bbox-paths="true"
     inkscape:snap-bbox-edge-midpoints="true"
     inkscape:snap-bbox-midpoints="true"
     inkscape:object-paths="true"
     inkscape:snap-intersection-paths="true"
     inkscape:object-nodes="true"
     inkscape:snap-smooth-nodes="true"
     inkscape:snap-midpoints="true"
     inkscape:snap-object-midpoints="true"
     inkscape:snap-center="true"
     inkscape:window-width="942"
     inkscape:window-height="987"
     inkscape:window-x="4800"
     inkscape:window-y="1080"
     inkscape:window-maximized="0">
    <inkscape:grid
       type="xygrid"
       id="grid4806"
       empspacing="6"
       visible="true"
       enabled="true"
       snapvisiblegridlinesonly="true" />
  </sodipodi:namedview>
  <metadata
     id="metadata4773">
    <rdf:RDF>
      <cc:Work
         rdf:about="">
        <dc:format>image/svg+xml</dc:format>
        <dc:type
           rdf:resource="http://purl.org/dc/dcmitype/StillImage" />
        <dc:title />
      </cc:Work>
    </rdf:RDF>
  </metadata>
  <g
     inkscape:label="Layer 1"
     inkscape:groupmode="layer"
     id="layer1"
     transform="translate(0,-1022.3622)">
    <g
       id="g3793">
      <path
         id="path6694-4"
         d="m 15,1028.3622 c -0.25,0 -0.5021,0.014 -0.75,0.031 -7.68378,0.5282 -14.25,8.969 -14.25,8.969 0,0 6.56622,8.4407 14.25,8.9688 0.2479,0.017 0.5,0.031 0.75,0.031 0.25,0 0.49925,-0.012 0.71875,-0.031 0.01,-8e-4 0.0213,6e-4 0.0312,0 C 23.4338,1045.803 30,1037.3622 30,1037.3622 c 0,0 -6.5662,-8.4408 -14.25005,-8.9688 -0.01,-6e-4 -0.0213,8e-4 -0.0312,0 -0.2195,-0.019 -0.46875,-0.031 -0.71875,-0.031 z"
         style="fill:#bdd731;fill-opacity:1;stroke:none;display:inline"
         inkscape:connector-curvature="0" />
      <path
         inkscape:export-filename="C:\Users\toco\Documents\Documents\Cancun\Cancun mock-up HTML\v9\img\clock_active.png"
         inkscape:export-ydpi="90"
         inkscape:export-xdpi="90"
         transform="matrix(0.04495413,0,0,0.04495413,-0.34862,1020.1734)"
         d="M 497.14284,382.36218 A 155.71428,155.71428 0 0 1 341.42856,538.07646 155.71428,155.71428 0 0 1 185.71428,382.36218 155.71428,155.71428 0 0 1 341.42856,226.6479 155.71428,155.71428 0 0 1 497.14284,382.36218 Z"
         sodipodi:ry="155.71428"
         sodipodi:rx="155.71428"
         sodipodi:cy="382.36218"
         sodipodi:cx="341.42856"
         id="path2985-1-4-1-7-7-3-4-9-7-8"
         style="fill:#ffffff;fill-opacity:1;fill-rule:evenodd;stroke:none;display:inline"
         sodipodi:type="arc" />
      <path
         inkscape:export-filename="C:\Users\toco\Documents\Documents\Cancun\Cancun mock-up HTML\v9\img\clock_active.png"
         inkscape:export-ydpi="90"
         inkscape:export-xdpi="90"
         transform="matrix(0.03211009,0,0,0.03211009,4.0367,1025.0845)"
         d="M 497.14284,382.36218 A 155.71428,155.71428 0 0 1 341.42856,538.07646 155.71428,155.71428 0 0 1 185.71428,382.36218 155.71428,155.71428 0 0 1 341.42856,226.6479 155.71428,155.71428 0 0 1 497.14284,382.36218 Z"
         sodipodi:ry="155.71428"
         sodipodi:rx="155.71428"
         sodipodi:cy="382.36218"
         sodipodi:cx="341.42856"
         id="path2985-1-4-1-7-7-3-4-9-7-4-2"
         style="fill:#bdd731;fill-opacity:1;fill-rule:evenodd;stroke:none;display:inline"
         sodipodi:type="arc" />
      <path
         inkscape:export-filename="C:\Users\toco\Documents\Documents\Cancun\Cancun mock-up HTML\v9\img\clock_active.png"
         inkscape:export-ydpi="90"
         inkscape:export-xdpi="90"
         transform="matrix(0.01926606,0,0,0.01926606,10.422,1026.9956)"
         d="M 497.14284,382.36218 A 155.71428,155.71428 0 0 1 341.42856,538.07646 155.71428,155.71428 0 0 1 185.71428,382.36218 155.71428,155.71428 0 0 1 341.42856,226.6479 155.71428,155.71428 0 0 1 497.14284,382.36218 Z"
         sodipodi:ry="155.71428"
         sodipodi:rx="155.71428"
         sodipodi:cy="382.36218"
         sodipodi:cx="341.42856"
         id="path2985-1-4-1-7-7-3-4-9-7-4-0-4"
         style="fill:#ffffff;fill-opacity:1;fill-rule:evenodd;stroke:none;display:inline"
         sodipodi:type="arc" />
    </g>
  </g>
</svg>
