<?xml version="1.0" encoding="UTF-8" standalone="no"?>
<!-- Created with Inkscape (http://www.inkscape.org/) -->

<svg
   xmlns:dc="http://purl.org/dc/elements/1.1/"
   xmlns:cc="http://creativecommons.org/ns#"
   xmlns:rdf="http://www.w3.org/1999/02/22-rdf-syntax-ns#"
   xmlns:svg="http://www.w3.org/2000/svg"
   xmlns="http://www.w3.org/2000/svg"
   xmlns:sodipodi="http://sodipodi.sourceforge.net/DTD/sodipodi-0.dtd"
   xmlns:inkscape="http://www.inkscape.org/namespaces/inkscape"
   width="30"
   height="30"
   id="svg4768"
   version="1.1"
   inkscape:version="0.48.4 r9939"
   sodipodi:docname="eye.svg">
  <defs
     id="defs4770" />
  <sodipodi:namedview
     id="base"
     pagecolor="#ffffff"
     bordercolor="#666666"
     borderopacity="1.0"
     inkscape:pageopacity="0.0"
     inkscape:pageshadow="2"
     inkscape:zoom="15.839192"
     inkscape:cx="9.5428802"
     inkscape:cy="14.415589"
     inkscape:document-units="px"
     inkscape:current-layer="layer1"
     showgrid="true"
     inkscape:snap-bbox="true"
     inkscape:bbox-nodes="true"
     inkscape:bbox-paths="true"
     inkscape:snap-bbox-edge-midpoints="true"
     inkscape:snap-bbox-midpoints="true"
     inkscape:object-paths="true"
     inkscape:snap-intersection-paths="true"
     inkscape:object-nodes="true"
     inkscape:snap-smooth-nodes="true"
     inkscape:snap-midpoints="true"
     inkscape:snap-object-midpoints="true"
     inkscape:snap-center="true"
     inkscape:window-width="1366"
     inkscape:window-height="706"
     inkscape:window-x="-8"
     inkscape:window-y="-8"
     inkscape:window-maximized="1">
    <inkscape:grid
       type="xygrid"
       id="grid4806"
       empspacing="6"
       visible="true"
       enabled="true"
       snapvisiblegridlinesonly="true" />
  </sodipodi:namedview>
  <metadata
     id="metadata4773">
    <rdf:RDF>
      <cc:Work
         rdf:about="">
        <dc:format>image/svg+xml</dc:format>
        <dc:type
           rdf:resource="http://purl.org/dc/dcmitype/StillImage" />
        <dc:title></dc:title>
      </cc:Work>
    </rdf:RDF>
  </metadata>
  <g
     inkscape:label="Layer 1"
     inkscape:groupmode="layer"
     id="layer1"
     transform="translate(0,-1022.3622)">
    <g
       id="g3771">
      <rect
         y="1022.3622"
         x="0"
         height="30"
         width="30"
         id="rect4295-4-2-5-5-1"
         style="fill:#ffffff;fill-opacity:0;stroke:none;display:inline" />
      <path
         id="path6694"
         d="m 15,1028.3622 c -0.25,0 -0.50214,0.014 -0.75,0.031 -7.68378,0.5282 -14.25,8.969 -14.25,8.969 0,0 6.56622,8.4407 14.25,8.9688 0.24786,0.017 0.5,0.031 0.75,0.031 0.25,0 0.49922,-0.012 0.71875,-0.031 0.0103,-8e-4 0.0209,7e-4 0.0312,0 C 23.4338,1045.803 30,1037.3622 30,1037.3622 c 0,0 -6.5662,-8.4408 -14.25005,-8.9688 -0.0103,-6e-4 -0.0209,8e-4 -0.0312,0 -0.21948,-0.019 -0.46875,-0.031 -0.71875,-0.031 z"
         style="fill:#333333;fill-opacity:1;stroke:none;display:inline"
         inkscape:connector-curvature="0" />
      <path
         inkscape:export-filename="C:\Users\toco\Documents\Documents\Cancun\Cancun mock-up HTML\v9\img\clock_active.png"
         inkscape:export-ydpi="90"
         inkscape:export-xdpi="90"
         transform="matrix(0.04495413,0,0,0.04495413,-0.34862,1020.1734)"
         d="m 497.14284,382.36218 a 155.71428,155.71428 0 1 1 -311.42856,0 155.71428,155.71428 0 1 1 311.42856,0 z"
         sodipodi:ry="155.71428"
         sodipodi:rx="155.71428"
         sodipodi:cy="382.36218"
         sodipodi:cx="341.42856"
         id="path2985-1-4-1-7-7-3-4-9-7"
         style="fill:#ffffff;fill-opacity:1;fill-rule:evenodd;stroke:none;display:inline"
         sodipodi:type="arc" />
      <path
         inkscape:export-filename="C:\Users\toco\Documents\Documents\Cancun\Cancun mock-up HTML\v9\img\clock_active.png"
         inkscape:export-ydpi="90"
         inkscape:export-xdpi="90"
         transform="matrix(0.03211009,0,0,0.03211009,4.0367,1025.0845)"
         d="m 497.14284,382.36218 a 155.71428,155.71428 0 1 1 -311.42856,0 155.71428,155.71428 0 1 1 311.42856,0 z"
         sodipodi:ry="155.71428"
         sodipodi:rx="155.71428"
         sodipodi:cy="382.36218"
         sodipodi:cx="341.42856"
         id="path2985-1-4-1-7-7-3-4-9-7-4"
         style="fill:#333333;fill-opacity:1;fill-rule:evenodd;stroke:none;display:inline"
         sodipodi:type="arc" />
      <path
         inkscape:export-filename="C:\Users\toco\Documents\Documents\Cancun\Cancun mock-up HTML\v9\img\clock_active.png"
         inkscape:export-ydpi="90"
         inkscape:export-xdpi="90"
         transform="matrix(0.01926606,0,0,0.01926606,10.42202,1026.9956)"
         d="m 497.14284,382.36218 a 155.71428,155.71428 0 1 1 -311.42856,0 155.71428,155.71428 0 1 1 311.42856,0 z"
         sodipodi:ry="155.71428"
         sodipodi:rx="155.71428"
         sodipodi:cy="382.36218"
         sodipodi:cx="341.42856"
         id="path2985-1-4-1-7-7-3-4-9-7-4-0"
         style="fill:#ffffff;fill-opacity:1;fill-rule:evenodd;stroke:none;display:inline"
         sodipodi:type="arc" />
    </g>
  </g>
</svg>
